<?xml version="1.0" encoding="utf-8"?>
<!-- Generator: Adobe Illustrator 25.2.0, SVG Export Plug-In . SVG Version: 6.00 Build 0)  -->
<svg version="1.1" id="Layer_1" xmlns="http://www.w3.org/2000/svg" xmlns:xlink="http://www.w3.org/1999/xlink" x="0px" y="0px"
	 viewBox="0 0 1200 1200" style="enable-background:new 0 0 1200 1200;" xml:space="preserve">
<style type="text/css">
	.st0{fill:#FFFFFF;}
	.st1{clip-path:url(#SVGID_2_);}
	.st2{opacity:0.3;}
	.st3{fill:#611940;}
	.st4{fill:#050000;}
	.st5{fill:#ED2E7A;}
	.st6{clip-path:url(#SVGID_4_);}
	.st7{opacity:0.2;}
	.st8{fill:none;stroke:#050000;stroke-width:9.45;stroke-linecap:round;stroke-miterlimit:10;}
	.st9{clip-path:url(#SVGID_6_);}
	.st10{clip-path:url(#SVGID_8_);}
	.st11{clip-path:url(#SVGID_10_);}
	.st12{clip-path:url(#SVGID_12_);}
	.st13{fill:#413757;}
	.st14{clip-path:url(#SVGID_14_);}
	.st15{clip-path:url(#SVGID_16_);}
	.st16{clip-path:url(#SVGID_18_);}
	.st17{clip-path:url(#SVGID_20_);}
	.st18{clip-path:url(#SVGID_22_);}
	.st19{clip-path:url(#SVGID_24_);}
	.st20{clip-path:url(#SVGID_26_);}
	.st21{clip-path:url(#SVGID_28_);}
	.st22{opacity:0.5;}
	.st23{clip-path:url(#SVGID_30_);}
	.st24{clip-path:url(#SVGID_32_);}
	.st25{clip-path:url(#SVGID_34_);}
	.st26{fill:none;stroke:#050000;stroke-width:1.89;stroke-miterlimit:10;}
	.st27{fill:none;stroke:#000000;stroke-width:9.45;stroke-linecap:round;stroke-miterlimit:10;}
	.st28{clip-path:url(#SVGID_36_);}
</style>
<g id="Graphic_Elements">
	<path class="st0" d="M871.5,1057.5c-71.8,21.3-156.5,26.2-220.9,26c-64.4,0.2-149.1-4.8-220.9-26C310.2,1022,300.8,899.6,360.2,772
		c6.9-14.8,14.7-29.7,23.4-44.5c2.2-3.8,4.5-7.7,6.9-11.5c3.4-5.5,7-10.9,10.6-16c4.9-6.9,10-13.4,15.2-19.5
		C509.6,571.6,650.7,579,650.7,579s148.2-7.7,241.3,110c1.2,1.5,2.3,3,3.5,4.5c5.1,6.7,10,13.9,14.7,21.4l0.7,1.1
		c21.1,34.1,37.6,68.8,48.9,102.3C996.7,928.2,976.6,1026.4,871.5,1057.5"/>
	<g>
		<defs>
			<rect id="SVGID_1_" x="401.1" y="578.8" width="490.9" height="181.9"/>
		</defs>
		<clipPath id="SVGID_2_">
			<use xlink:href="#SVGID_1_"  style="overflow:visible;"/>
		</clipPath>
		<g class="st1">
			<g class="st2">
				<path class="st3" d="M892,689c-61.5,33.5-148,72.3-257.2,71.8c-94.3-0.4-174.5-31.8-233.7-60.7c4.9-6.9,10-13.3,15.2-19.5
					C509.6,571.6,650.7,579,650.7,579S798.9,571.2,892,689"/>
			</g>
		</g>
	</g>
	<path class="st4" d="M656.3,578.8c-3.7,0-5.7,0.1-5.7,0.1s-2-0.1-5.7-0.1c-30.3,0-174.2,7.1-254.5,137.2
		c-90.1,146-97.7,300.8,39.4,341.5c70.7,21,153.9,26,217.9,26h5.9c64,0,147.2-5.1,217.9-26C1008.6,1016.9,1001,862,910.9,716
		C830.5,585.9,686.6,578.8,656.3,578.8 M645,588.3c3.2,0,5.1,0.1,5.2,0.1h0.5h0.5c0.1,0,2-0.1,5.2-0.1c27.5,0,168.5,6.4,246.5,132.7
		c58.1,94.2,78.5,187.8,54.6,250.4c-14.5,38-44.3,63.9-88.6,77c-71.5,21.2-156.5,25.6-215.2,25.6h-5.9c-58.7,0-143.7-4.4-215.2-25.6
		c-44.3-13.1-74.1-39-88.6-77c-23.9-62.7-3.5-156.3,54.6-250.4C476.5,594.7,617.5,588.3,645,588.3"/>
	<path class="st0" d="M353.2,878.4l-39,62.6c0,0-62.5-51.7-86.5-112.3s25.4-136.7-19.7-152.2c-11-3.8-19.5-2.5-26.5,1.9
		c-29.3,18.2-34.1,89.9-98.9,72.8c-34.9-9.2-39.5-44.4-24.2-80.2c6.4-14.7,15.1-28.3,25.8-40.2c13.6-15.3,30.8-28.5,50.3-36.9
		c19.1-8.5,40.2-11.6,60.9-9.1c112.8,14.1,104.3,115.6,100.1,153.7c-0.3,2.7-0.6,5.3-1.1,7.9c-2.2,13.5-5.7,27-4.5,41.9
		C291.5,812.1,304.8,839.9,353.2,878.4"/>
	<path class="st5" d="M181.5,678.3c-29.3,18.2-34.1,89.9-98.9,72.8s-25.1-123.9,51.9-157.3c14.1,3.4,34.1,12.7,44,38.2
		C184,646.8,185.1,662.9,181.5,678.3"/>
	<g>
		<defs>
			<rect id="SVGID_3_" x="50.1" y="636.4" width="303.2" height="304.5"/>
		</defs>
		<clipPath id="SVGID_4_">
			<use xlink:href="#SVGID_3_"  style="overflow:visible;"/>
		</clipPath>
		<g class="st6">
			<g class="st7">
				<path class="st4" d="M353.2,878.4l-39,62.6c0,0-62.5-51.7-86.5-112.3s25.4-136.7-19.7-152.2c-11-3.8-19.5-2.5-26.5,1.9
					c-29.3,18.2-34.1,89.9-98.9,72.8c-34.9-9.2-39.5-44.4-24.2-80.2c2.9,5.4,7.8,9.4,13.7,11.3c11,3.9,23.2-0.8,32.5-7.8
					s16.9-16,26.4-22.7c14.2-10,31.8-14,49.1-15.1c15.8-1,32.3,0.6,46,8.5c25.3,14.7,34.2,47.5,32.9,76.7c-0.8,18-1.1,35.8-1.1,53.9
					c0,17.5,4.2,35,20.7,44c4.5,2.4,17.4,3.6,22.4,2.8C315.8,843.3,312.3,840.9,353.2,878.4"/>
			</g>
		</g>
	</g>
	<path class="st8" d="M353.2,878.4l-39,62.6c0,0-62.5-51.7-86.5-112.3s25.4-136.7-19.7-152.2c-11-3.8-19.5-2.5-26.5,1.9
		c-29.3,18.2-34.1,89.9-98.9,72.8c-34.9-9.2-39.5-44.4-24.2-80.2c6.4-14.7,15.1-28.3,25.8-40.2c13.6-15.3,30.8-28.5,50.3-36.9
		c19.1-8.5,40.2-11.6,60.9-9.1c112.8,14.1,104.3,115.6,100.1,153.7c-0.3,2.7-0.6,5.3-1.1,7.9c-2.2,13.5-5.7,27-4.5,41.9
		C291.5,812.1,304.8,839.9,353.2,878.4z"/>
	<path class="st0" d="M676.9,932c1.3,4.4,6.9,9,15.7,12.5c40.6,16.7,149.4,12.9,218-119.1c4-7.7,7.9-15.8,11.6-24.4l-152.6-48.4
		c0,0-1.2,7.7-4.2,19.8c-3.9,15.7-10.7,38.7-21.7,61.4c-2.5,5.2-5.3,10.5-8.3,15.6C709.4,893.7,669.4,907,676.9,932"/>
	<g>
		<defs>
			<rect id="SVGID_5_" x="676" y="825.5" width="234.6" height="126.1"/>
		</defs>
		<clipPath id="SVGID_6_">
			<use xlink:href="#SVGID_5_"  style="overflow:visible;"/>
		</clipPath>
		<g class="st9">
			<g class="st7">
				<path class="st3" d="M676.9,932c7.5,24.8,150.3,53.9,233.7-106.6l-0.6,0.6c-9.6,8.9-19.8,17.1-30.5,24.5
					c-21.3,14.7-44.7,26.3-69.3,34.5c-15.4,5-31.8,8.7-47.6,5.3c-8.6-1.8-17.3-6.3-21-14.3c-2.2-4.7-2.3-10.1-2-15.3
					c0.6-9.4,2.8-18.7,6.4-27.4c-0.8,0.2-1.6,0.3-2.4,0.5c-2.5,5.2-5.3,10.5-8.3,15.6C709.4,893.7,669.4,907,676.9,932"/>
			</g>
		</g>
	</g>
	<g>
		<defs>
			<rect id="SVGID_7_" x="676" y="772.5" width="89.8" height="172.1"/>
		</defs>
		<clipPath id="SVGID_8_">
			<use xlink:href="#SVGID_7_"  style="overflow:visible;"/>
		</clipPath>
		<g class="st10">
			<g class="st2">
				<path class="st3" d="M676.9,932c1.3,4.4,6.9,9,15.7,12.5c-1-7.9,1.1-16.5,5.2-23.5c6.5-11.3,16.8-19.7,25.7-29.1
					c8.5-8.9,15.8-18.9,21.9-29.6c11.2-19.9,17.9-41.9,19.7-64.6c0.8-8.4,0.9-16.8,0.2-25.2c-3.9,15.7-10.7,38.7-21.7,61.4
					c-2.5,5.2-5.3,10.5-8.3,15.6C709.4,893.7,669.4,907,676.9,932"/>
			</g>
		</g>
	</g>
	<path class="st8" d="M769.5,752.7c0,0-1.2,7.7-4.2,19.8c-3.9,15.7-10.7,38.7-21.7,61.4c-2.5,5.2-5.3,10.5-8.3,15.5
		c-25.9,44.2-65.9,57.6-58.4,82.6c1.3,4.4,6.9,9,15.7,12.6c40.6,16.6,149.4,12.8,218-119.1c4-7.7,7.9-15.8,11.6-24.4"/>
	<path class="st0" d="M628,932c-1.3,4.4-6.9,9-15.7,12.5c-40.7,16.6-149.4,12.8-218-119.1c-4-7.7-7.9-15.8-11.5-24.4l152.6-48.4
		c0,0,1.2,7.7,4.2,19.8c3.9,15.7,10.7,38.7,21.7,61.4c2.5,5.2,5.3,10.5,8.3,15.6C595.4,893.7,635.5,907,628,932"/>
	<g>
		<defs>
			<rect id="SVGID_9_" x="394.3" y="825.5" width="234.6" height="126.1"/>
		</defs>
		<clipPath id="SVGID_10_">
			<use xlink:href="#SVGID_9_"  style="overflow:visible;"/>
		</clipPath>
		<g class="st11">
			<g class="st7">
				<path class="st3" d="M628,932c-7.5,24.8-150.3,53.9-233.7-106.6c0.2,0.2,0.4,0.4,0.6,0.6c9.6,8.9,19.8,17.1,30.5,24.5
					c21.3,14.7,44.7,26.3,69.3,34.5c15.4,5,31.8,8.7,47.6,5.3c8.6-1.8,17.3-6.3,21-14.3c2.2-4.7,2.3-10.1,2-15.3
					c-0.6-9.4-2.8-18.7-6.4-27.4c0.8,0.2,1.6,0.3,2.4,0.5c2.5,5.2,5.3,10.5,8.3,15.6C595.4,893.7,635.5,907,628,932"/>
			</g>
		</g>
	</g>
	<g>
		<defs>
			<rect id="SVGID_11_" x="539.1" y="772.5" width="89.8" height="172.1"/>
		</defs>
		<clipPath id="SVGID_12_">
			<use xlink:href="#SVGID_11_"  style="overflow:visible;"/>
		</clipPath>
		<g class="st12">
			<g class="st2">
				<path class="st3" d="M628,932c-1.3,4.4-6.9,9-15.7,12.5c1-7.9-1.2-16.5-5.2-23.5c-6.5-11.3-16.8-19.7-25.7-29.1
					c-8.5-8.9-15.8-18.9-21.9-29.6c-11.2-19.9-17.9-41.9-19.7-64.6c-0.8-8.4-0.9-16.8-0.2-25.2c3.9,15.7,10.7,38.7,21.7,61.4
					c2.5,5.2,5.3,10.5,8.3,15.6C595.4,893.7,635.5,907,628,932"/>
			</g>
		</g>
	</g>
	<path class="st8" d="M535.3,752.7c0,0,1.2,7.7,4.2,19.8c3.9,15.7,10.7,38.7,21.7,61.4c2.5,5.2,5.3,10.5,8.3,15.5
		c25.9,44.2,65.9,57.5,58.4,82.6c-1.3,4.4-6.9,9-15.7,12.6c-40.6,16.6-149.4,12.8-217.9-119.1c-4-7.7-7.9-15.8-11.6-24.4"/>
	<path class="st13" d="M418.2,917.3c0,0-100.7-118.6-161.2-18.6"/>
	<path class="st0" d="M1148,971.8c0,6.2-0.4,12.4-1.2,18.6c-3.5,27.9-15.5,54.1-34.5,74.9c-28.6,31.9-69.9,49.4-112.8,49.4H302.2
		c-21.2,0.1-42.3-4.3-61.7-12.7c-19.4-8.4-36.8-20.9-51-36.7c-19.7-21.9-35.5-52.3-35.7-93.5c-0.5-95.2,68.9-98.8,104.3-67.5
		c11.5-15.1,18-28.6,25.1-30.2c46.6-34,96.2,9.3,96.2,9.3s53.3,33.6,68.9,82.7c13.2,41.3,45,74,86.4,86.7
		c75.7,23.4,156.7,23.4,232.4,0l8.8-2.7c41-12.7,72.5-44.8,85.9-85.5c15.9-48.2,51.5-77.4,51.5-77.4s36.4-24.7,63.2-27.2
		c22.8-2.2,37.4,10.8,45.2,12.6c6.5,1.4,15.4,17.7,26,30.9c26.5-19.6,67.4-22.7,87.8,11.6c5.3,8.9,9.2,20.2,11.1,34.5
		c0.3,2.4,0.6,4.9,0.8,7.5c0,0.5,0.1,1,0.1,1.6C1147.9,962.7,1148.1,967.1,1148,971.8"/>
	<g>
		<defs>
			<rect id="SVGID_13_" x="160.2" y="983.2" width="986.6" height="131.5"/>
		</defs>
		<clipPath id="SVGID_14_">
			<use xlink:href="#SVGID_13_"  style="overflow:visible;"/>
		</clipPath>
		<g class="st14">
			<g class="st2">
				<path class="st3" d="M1146.8,990.3c-3.5,27.9-15.5,54.1-34.5,74.9c-28.6,31.9-70,49.4-112.8,49.4h-692
					c-42.9,0-89.4-17.5-118-49.4c-16.6-18.5-25.2-43-29.2-74.9c4.4-2.3,0-7.1,0-7.1s-7.2,97.3,251.2,92.1c3.3-0.1,15.2,0,32.5,0.3
					c139.7,2.1,279.5,2.1,419.2,0c17.3-0.3,29.2-0.4,32.5-0.3c258.4,5.2,248.7-88.1,248.7-88.1S1142.4,988.1,1146.8,990.3"/>
			</g>
		</g>
	</g>
	<g>
		<defs>
			<rect id="SVGID_15_" x="1008.9" y="888.8" width="141.1" height="82.6"/>
		</defs>
		<clipPath id="SVGID_16_">
			<use xlink:href="#SVGID_15_"  style="overflow:visible;"/>
		</clipPath>
		<g class="st15">
			<g class="st2">
				<path class="st3" d="M1150,966.6c0,0.5-0.6-2.8-2.4-8c-4.9-13.7-18-47.1-53.1-50.9c-48.5-5.3-83.9,63.8-83.9,63.8l-1.7-5.1
					c5.3-12.2,13.5-30,20.5-42.5c19.7-35.2,79.9-53,106.2-8.8c4.6,16.1,9.2,32.1,11.9,41.9C1149,962.7,1150,966.3,1150,966.6"/>
			</g>
		</g>
	</g>
	<g>
		<defs>
			<rect id="SVGID_17_" x="882.8" y="858.7" width="163.6" height="78.2"/>
		</defs>
		<clipPath id="SVGID_18_">
			<use xlink:href="#SVGID_17_"  style="overflow:visible;"/>
		</clipPath>
		<g class="st16">
			<g class="st2">
				<path class="st3" d="M882.8,919.7c148.6-101.8,138.3,17.2,138.3,17.2c9.6-21.7,14.9-25,25.3-35.4c-6.1-12.9-39-35.7-39-35.7
					c-2.8-2.8-9.6-2.9-11.5-7c-0.6-1.2-42.4,6.5-43,5.2L882.8,919.7z"/>
			</g>
		</g>
	</g>
	<path class="st8" d="M1046.7,900.4c0,0-30.2-56.6-84.6-36.9c-39.4,13.8-65.4,41.9-76.2,53.6"/>
	<path class="st8" d="M569,1116.9h433.4c0,0,149.9-0.8,145.5-158.1c-3.7-75-63.4-82.8-101.3-54.6c0,0-20.5,12.3-40.2,67.5"/>
	<g>
		<defs>
			<rect id="SVGID_19_" x="153.8" y="888.8" width="141.1" height="82.6"/>
		</defs>
		<clipPath id="SVGID_20_">
			<use xlink:href="#SVGID_19_"  style="overflow:visible;"/>
		</clipPath>
		<g class="st17">
			<g class="st2">
				<path class="st3" d="M153.8,966.6c0,0.5,0.6-2.8,2.4-8c4.9-13.7,18-47.1,53.1-50.9c48.5-5.3,83.9,63.8,83.9,63.8l1.7-5.1
					c-5.3-12.2-13.5-30-20.5-42.5c-19.7-35.2-79.9-53-106.2-8.8c-4.6,16.1-9.2,32.1-11.9,41.9C154.8,962.7,153.8,966.3,153.8,966.6"
					/>
			</g>
		</g>
	</g>
	<g>
		<defs>
			<rect id="SVGID_21_" x="261.2" y="859.1" width="159.8" height="77.7"/>
		</defs>
		<clipPath id="SVGID_22_">
			<use xlink:href="#SVGID_21_"  style="overflow:visible;"/>
		</clipPath>
		<g class="st18">
			<g class="st2">
				<path class="st3" d="M421,919.7c-148.6-101.8-138.3,17.2-138.3,17.2c-9.6-21.7-11.2-24.5-21.6-34.9
					c6.1-12.9,30.5-35.3,30.5-35.3c2.8-2.8,12.2-3.3,14.2-7.4c0.6-1.2,44.5,6,45.1,4.7L421,919.7z"/>
			</g>
		</g>
	</g>
	<path class="st8" d="M258,900.4c0,0,30.2-56.6,84.6-36.9c39.4,13.8,65.4,41.9,76.3,53.6"/>
	<path class="st8" d="M735.7,1116.9H302.3c0,0-149.9-0.8-145.5-158.1c3.7-75,63.4-82.8,101.3-54.6c0,0,20.5,12.3,40.2,67.5"/>
	<path class="st5" d="M258.1,993c6.9,18.7,1,38.1-13.1,43.3s-31.1-5.8-38-24.6s-1-38.1,13.1-43.3S251.3,974.3,258.1,993"/>
	<path class="st5" d="M254.1,938.3c3.1,8.5,0.5,17.4-6,19.7s-14.2-2.6-17.3-11.2s-0.5-17.4,6-19.7S251,929.8,254.1,938.3"/>
	<path class="st5" d="M220.6,934.8c3.1,8.5,0.5,17.4-6,19.7s-14.2-2.7-17.3-11.2s-0.5-17.4,6-19.7S217.5,926.3,220.6,934.8"/>
	<path class="st5" d="M199,960.7c2.9,7.8,0.4,15.8-5.4,18s-12.9-2.4-15.7-10.2s-0.4-15.8,5.4-18S196.1,953,199,960.7"/>
	<path class="st5" d="M1046.1,993c-6.9,18.7-1,38.1,13.1,43.3s31.1-5.8,38-24.6s1-38.1-13.1-43.3S1053.1,974.3,1046.1,993"/>
	<path class="st5" d="M1050.1,938.3c-3.1,8.5-0.5,17.4,6,19.7s14.2-2.6,17.3-11.2s0.5-17.4-6-19.7S1053.2,929.8,1050.1,938.3"/>
	<path class="st5" d="M1083.7,934.8c-3.1,8.5-0.5,17.4,6,19.7s14.2-2.7,17.3-11.2s0.5-17.4-6-19.7S1086.8,926.3,1083.7,934.8"/>
	<path class="st5" d="M1105.2,960.7c-2.8,7.8-0.4,15.8,5.4,18s12.9-2.4,15.8-10.2s0.4-15.8-5.4-18S1108.1,953,1105.2,960.7"/>
	<path class="st0" d="M988.8,491.1c4.6,25.9,17.8,51.2,16.9,59.6c-2,16.9-39.8-3.2-39.8-3.2s-2.2,5.3,5.3,20.5
		c5.6,11.3,10.5,19.5,8.2,25.6c-2.5,6.4-13.5,7.7-26.3,6.2c-9-1-16.6,0.1-26.5,10.8c-2.2,2.3-4.2,4.8-6.1,7.4c0,0,0,0-0.1,0l0,0
		c-29.8,34.4-66,66.1-114.1,88.5c-44.6,20.9-240.9,89.3-415.3-46.1c-22.2-17.2-42.2-37.1-57.5-61.5c-3.7-1-7.6-1.2-11.5-0.6
		c-12.8,1.4-23.8,0.1-26.3-6.4c-2.3-6,1.9-15,7-26.6c2.7-5.7,4.8-11.7,6.4-17.8c0.1-0.7-0.4-1.2-0.9-1c-6.6,3.3-36.9,17.5-38.6,2.5
		c-0.9-8.4,12.5-33.7,17.1-59.5c7.7-42.2,13.7-72,17.5-89.9c0.1-0.5,0.2-1,0.3-1.5s0.2-1,0.3-1.4s0.2-0.9,0.3-1.4
		c1.1-5.2,2.5-10.4,3.9-15.5c6.6-23.8,16-47.4,28-74.1c-17.3-30.1-90.5-163.8-50.5-214.6c22.8-29,178.6,28.9,212.7,42.1
		c37.3-17.9,79.7-28.9,126.7-30.9c9.5-0.4,18.8-0.4,27.9,0c0.2,0,0.5,0,0.7,0c30.6,1.2,58,9,84.4,18.3l9.2,3.3
		c12.2,4.5,24.1,9.7,35.5,15.8c34.6-12.1,196.2-66.7,218-37c38.1,51.8-38.7,182.4-57.3,212.5c4.5,9.8,8.5,19.5,12,29.3
		c4.2,11.7,7.8,23.7,10.5,35.8c0,0,0,0.2,0.1,0.6c0.8,3.4,4.5,19.9,10.5,50.5C980.9,447.5,984.6,467.3,988.8,491.1"/>
	<g>
		<defs>
			<rect id="SVGID_23_" x="295.2" y="560.7" width="684.8" height="181.7"/>
		</defs>
		<clipPath id="SVGID_24_">
			<use xlink:href="#SVGID_23_"  style="overflow:visible;"/>
		</clipPath>
		<g class="st19">
			<g class="st2">
				<path class="st3" d="M971.3,567.9c5.6,11.3,10.5,19.5,8.2,25.6c-2.5,6.5-13.5,7.8-26.3,6.3c-9-1-16.6,0.1-26.5,10.8
					c-2.2,2.3-4.2,4.8-6.1,7.4c0,0,0,0-0.1,0l0,0c-29.8,34.4-66.1,66.1-114.1,88.5c-44.5,20.8-240.8,89.3-415.3-46.1
					c-22.2-17.2-42.2-37.1-57.5-61.5c-3.7-1-7.6-1.2-11.5-0.6c-12.8,1.4-23.8,0.1-26.3-6.3c-2.3-6.1,1.9-15,7-26.6
					c0.7-1.7,1.4-3.2,2-4.7c4.7,1,10.7,1,17.3,0.3c3.8-0.5,7.7-0.3,11.5,0.6c15.3,24.4,35.2,44.3,57.5,61.5
					c174.4,135.4,370.7,66.9,415.3,46.1c48-22.5,84.3-54.1,114.1-88.5l0,0c0,0,0,0,0.1,0c1.9-2.6,3.9-5.1,6.1-7.4
					c10-10.7,17.6-11.9,26.5-10.8c5.2,0.7,10.4,0.7,15.6,0.1C969.5,564.2,970.3,566,971.3,567.9"/>
			</g>
		</g>
	</g>
	<g>
		<defs>
			<rect id="SVGID_25_" x="274.7" y="85.1" width="737.2" height="83.5"/>
		</defs>
		<clipPath id="SVGID_26_">
			<use xlink:href="#SVGID_25_"  style="overflow:visible;"/>
		</clipPath>
		<g class="st20">
			<g class="st2">
				<g>
					<defs>
						<rect id="SVGID_27_" x="274.7" y="85.1" width="737.2" height="83.5"/>
					</defs>
					<clipPath id="SVGID_28_">
						<use xlink:href="#SVGID_27_"  style="overflow:visible;"/>
					</clipPath>
					<g class="st21">
						<g class="st22">
							<path class="st3" d="M1011.9,131c-0.7-1.1-1.5-2.3-2.3-3.4c-24.2-32.9-203.3,27.6-241.5,41c-12.7-6.8-25.9-12.7-39.4-17.6
								l-5.1-1.8c-49.9-17.9-103.1-16.6-154.9-9.7c-3.7,0.5-7.2,1.4-10.7,2.6l0,0c-13.5,4.9-26.7,10.8-39.4,17.5
								c-38.3-13.4-217.4-73.9-241.6-41c-0.8,1.1-1.6,2.2-2.3,3.4c1.1-10.8,4.2-20.5,10-28.3c21.9-29.7,183.4,24.9,218,36.9
								c11.5-6.1,23.4-11.4,35.6-15.8c3.1-1.1,6.1-1.1,9.2-2.2c0,0,114.2-27.8,191.8,7.8l9.2,3.3c12.2,4.5,24,9.8,35.5,15.9
								c34.5-12.1,196.1-66.7,217.9-36.9C1007.7,110.5,1010.8,120.1,1011.9,131"/>
						</g>
					</g>
				</g>
			</g>
		</g>
	</g>
	<path class="st5" d="M968.3,152c0,20.8-6.2,41.2-13,60.9c-7.5,21.5-16.2,43.4-32.6,59.1c-2.8,2.7-6.4,5.3-10.2,4.6
		c-3.1-0.6-5.4-3.3-7.2-5.8c-4.2-5.8-8-11.8-11.6-18c-8.3-14.1-15.7-28.8-25.7-41.7c-3.9-5-8.5-10.7-10.1-16.4
		c-1.4-5.1-0.3-10.1,6-14.4c28.9-19.5,62-31.7,96.7-35.4c2-0.2,4.2-0.3,5.7,0.9C968.1,147.2,968.3,149.8,968.3,152"/>
	<path class="st4" d="M962.7,135.4c-1,0-2.1,0.1-3.1,0.2c-36.2,3.9-70.9,16.6-101,37c-9.1,6.2-12.6,15-9.8,24.8
		c2,7.2,6.9,13.4,11.2,19l0.5,0.6c7.2,9.3,13,19.5,19.1,30.4c1.9,3.4,3.9,6.9,5.9,10.3c3.7,6.5,7.8,12.7,12.1,18.8
		c1.8,2.5,6,8.2,13.2,9.6c1,0.2,2,0.3,3,0.3c7.7,0,13.5-5.5,15.4-7.4c18.2-17.5,27.6-41.6,35-62.9c6.6-18.9,13.6-41,13.5-64
		c0-2.5,0-9.1-5.5-13.5C969.5,136.4,966.2,135.3,962.7,135.4 M962.7,144.9c1.3-0.1,2.6,0.3,3.7,1c1.8,1.4,2,3.9,2,6.2
		c0.1,20.8-6.2,41.2-13,60.9c-7.5,21.4-16.2,43.4-32.6,59.1c-2.5,2.4-5.6,4.7-8.9,4.7c-0.4,0-0.9,0-1.3-0.1
		c-3.1-0.6-5.4-3.3-7.2-5.8c-4.2-5.8-8-11.8-11.6-18c-8.3-14.1-15.7-28.8-25.8-41.7c-3.9-5-8.5-10.7-10.1-16.4
		c-1.4-5.1-0.3-10.1,6-14.4c28.8-19.5,62-31.6,96.7-35.3C961.3,144.9,962,144.9,962.7,144.9"/>
	<g>
		<defs>
			<rect id="SVGID_29_" x="857.3" y="150.6" width="72.9" height="102.2"/>
		</defs>
		<clipPath id="SVGID_30_">
			<use xlink:href="#SVGID_29_"  style="overflow:visible;"/>
		</clipPath>
		<g class="st23">
			<g class="st2">
				<path class="st3" d="M930.3,150.6c0,0.2-0.1,0.5-0.1,0.7c-2.5,22.3-14.3,70.3-36.2,101.4h-0.3c-8.3-14.1-15.7-28.8-25.7-41.7
					c-3.9-5-8.5-10.7-10.1-16.4c-1.4-5.1-0.3-10.1,6-14.4c19.3-13.1,40.7-22.9,63.2-29.1C928.2,151.1,929.2,150.9,930.3,150.6"/>
			</g>
		</g>
	</g>
	<path class="st5" d="M318.8,142.1c0,20.8,6.2,41.2,13,60.8c7.5,21.5,16.2,43.4,32.6,59.1c2.8,2.7,6.4,5.4,10.2,4.6
		c3.1-0.6,5.4-3.3,7.2-5.8c4.2-5.8,8-11.8,11.6-18c8.3-14.1,15.7-28.8,25.8-41.7c3.9-5,8.5-10.7,10.1-16.4c1.4-5.1,0.4-10.1-6-14.4
		c-28.9-19.5-62.1-31.6-96.7-35.4c-2-0.2-4.2-0.3-5.8,0.9C319,137.3,318.8,139.8,318.8,142.1"/>
	<path class="st4" d="M324.5,125.3c-3.4-0.1-6.8,1-9.6,3.1c-5.5,4.4-5.5,11-5.5,13.5c0,23,7,45.1,13.5,64
		c7.4,21.2,16.8,45.3,35,62.8c1.9,1.8,7.7,7.4,15.5,7.4c1,0,2-0.1,3-0.3c7.1-1.3,11.3-7.1,13.1-9.6c4.4-6.1,8.4-12.3,12.1-18.8
		c2-3.4,3.9-6.9,5.9-10.3c6.1-10.9,11.9-21.1,19.1-30.4l0.5-0.6c4.3-5.5,9.2-11.8,11.2-19c2.8-9.8-0.7-18.6-9.8-24.8
		c-30.1-20.4-64.8-33.1-101-36.9C326.6,125.4,325.6,125.3,324.5,125.3 M324.6,134.8c0.7,0,1.4,0,2.1,0.1c11.3,1.2,22.5,3.3,33.5,6.3
		c22.5,6.2,43.9,16,63.2,29.1c6.4,4.3,7.5,9.3,6,14.4c-1.6,5.6-6.2,11.4-10.1,16.4c-10.1,12.9-17.5,27.6-25.8,41.7
		c-3.5,6.2-7.4,12.2-11.6,18c-1.9,2.6-4.1,5.3-7.2,5.8c-0.4,0.1-0.9,0.1-1.3,0.1c-3.3,0-6.4-2.4-8.9-4.7
		c-16.4-15.8-25.1-37.7-32.6-59.1c-6.8-19.7-13-40-13-60.8c0-2.2,0.2-4.8,2-6.2C322,135.1,323.3,134.7,324.6,134.8"/>
	<g>
		<defs>
			<rect id="SVGID_31_" x="356.9" y="140.7" width="72.9" height="102.2"/>
		</defs>
		<clipPath id="SVGID_32_">
			<use xlink:href="#SVGID_31_"  style="overflow:visible;"/>
		</clipPath>
		<g class="st24">
			<g class="st2">
				<path class="st3" d="M356.9,140.7c0,0.2,0,0.5,0.1,0.7c2.5,22.3,14.3,70.4,36.1,101.4h0.3c8.2-14.1,15.7-28.8,25.8-41.7
					c3.9-5,8.5-10.7,10.1-16.4c1.4-5.1,0.3-10.1-6-14.4c-19.3-13.1-40.7-22.9-63.2-29C359,141.2,358,141,356.9,140.7"/>
			</g>
		</g>
	</g>
	<path class="st8" d="M988.8,491.1c4.6,25.9,17.8,51.2,16.9,59.6c-2,16.9-39.8-3.2-39.8-3.2s-2.2,5.3,5.3,20.5
		c5.6,11.3,10.5,19.5,8.2,25.6c-2.5,6.4-13.5,7.7-26.3,6.2c-9-1-16.6,0.1-26.5,10.8c-2.2,2.3-4.2,4.8-6.1,7.4c0,0,0,0-0.1,0l0,0
		c-29.8,34.4-66,66.1-114.1,88.5c-44.6,20.9-240.9,89.3-415.3-46.1c-22.2-17.2-42.2-37.1-57.5-61.5c-3.7-1-7.6-1.2-11.5-0.6
		c-12.8,1.4-23.8,0.1-26.3-6.4c-2.3-6,1.9-15,7-26.6c2.7-5.7,4.8-11.7,6.4-17.8c0.1-0.7-0.4-1.2-0.9-1c-6.6,3.3-36.9,17.5-38.6,2.5
		c-0.9-8.4,12.5-33.7,17.1-59.5c7.7-42.2,13.7-72,17.5-89.9c0.1-0.5,0.2-1,0.3-1.5s0.2-1,0.3-1.4s0.2-0.9,0.3-1.4
		c1.1-5.2,2.5-10.4,3.9-15.5c6.6-23.8,16-47.4,28-74.1c-17.3-30.1-90.5-163.8-50.5-214.6c22.8-29,178.6,28.9,212.7,42.1
		c37.3-17.9,79.7-28.9,126.7-30.9c9.5-0.4,18.8-0.4,27.9,0c0.2,0,0.5,0,0.7,0c30.6,1.2,58,9,84.4,18.3l9.2,3.3
		c12.2,4.5,24.1,9.7,35.5,15.8c34.6-12.1,196.2-66.7,218-37c38.1,51.8-38.7,182.4-57.3,212.5c4.5,9.8,8.5,19.5,12,29.3
		c4.2,11.7,7.8,23.7,10.5,35.8c0,0,0,0.2,0.1,0.6c0.8,3.4,4.5,19.9,10.5,50.5C980.9,447.5,984.6,467.3,988.8,491.1L988.8,491.1z"/>
	<path class="st4" d="M739.8,444.1c5,28.9,32.5,48.3,61.5,43.3c28.9-5,48.3-32.5,43.3-61.5c-5-28.9-32.5-48.3-61.5-43.3c0,0,0,0,0,0
		C754.2,387.6,734.8,415.2,739.8,444.1"/>
	<path class="st8" d="M739.8,444.1c5,28.9,32.5,48.3,61.5,43.3c28.9-5,48.3-32.5,43.3-61.5c-5-28.9-32.5-48.3-61.5-43.3c0,0,0,0,0,0
		C754.2,387.6,734.8,415.2,739.8,444.1z"/>
	<path class="st0" d="M759.8,423.1c-0.1,10.1,6.2,18.4,14.1,18.5s14.3-8.1,14.3-18.3s-6.3-18.4-14.1-18.5S759.9,413,759.8,423.1"/>
	<path class="st0" d="M808.4,452.2c-0.2,5.1,2.8,9.3,6.7,9.5s7.3-3.8,7.5-8.9s-2.8-9.3-6.7-9.5S808.6,447.1,808.4,452.2"/>
	<path class="st4" d="M532.5,444.1c-5,28.9-32.5,48.3-61.5,43.3c-28.9-5-48.3-32.5-43.3-61.5c5-28.9,32.5-48.3,61.5-43.3
		c0,0,0,0,0,0C518.1,387.6,537.5,415.2,532.5,444.1"/>
	<path class="st8" d="M532.5,444.1c-5,28.9-32.5,48.3-61.5,43.3c-28.9-5-48.3-32.5-43.3-61.5c5-28.9,32.5-48.3,61.5-43.3
		c0,0,0,0,0,0C518.1,387.6,537.5,415.2,532.5,444.1z"/>
	<path class="st0" d="M512.5,423.1c0.1,10.1-6.2,18.4-14.1,18.5s-14.3-8.1-14.4-18.3s6.3-18.4,14.1-18.5S512.5,413,512.5,423.1"/>
	<path class="st0" d="M463.9,452.2c0.2,5.1-2.8,9.3-6.7,9.5s-7.3-3.8-7.5-8.9s2.8-9.3,6.7-9.5S463.7,447.1,463.9,452.2"/>
	<path class="st5" d="M672.8,562c-0.6,8.4-1.7,16.7-3.2,25c-5-6.8-14.9-15.7-32.6-15.7c-13.6-0.2-26.5,5.9-34.9,16.5
		c-2.1-8.9-3.6-18-4.4-27.1c30.9-3.4,37-31.6,37-31.6S641.7,559,672.8,562"/>
	<g>
		<defs>
			<rect id="SVGID_33_" x="597.7" y="529.2" width="75" height="58.7"/>
		</defs>
		<clipPath id="SVGID_34_">
			<use xlink:href="#SVGID_33_"  style="overflow:visible;"/>
		</clipPath>
		<g class="st25">
			<g class="st2">
				<path class="st3" d="M672.8,562c-0.6,8.4-1.7,16.7-3.2,25c-5-6.8-14.9-15.7-32.6-15.7c-13.6-0.2-26.5,5.9-34.9,16.5
					c-2.1-8.9-3.6-18-4.4-27.1c30.9-3.4,37-31.6,37-31.6S641.7,559,672.8,562"/>
			</g>
		</g>
	</g>
	<path class="st5" d="M669.6,587c-4.1,21.4-12.9,46.2-31.5,46.2c-20.7,0-31-24.5-36-45.4c8.4-10.6,21.3-16.7,34.9-16.5
		C654.7,571.3,664.6,580.2,669.6,587"/>
	<path class="st4" d="M678.9,559c-0.4,8.3-1.3,16.5-2.8,24.7c-0.4,2.5-0.9,5.1-1.5,7.6c-1.8,8.1-4.1,16-6.9,23.7
		c-4.3,11.7-13.2,20.1-23.8,22.2c-1.8,0.4-3.6,0.5-5.4,0.5c-7.6,0-15-3.3-20.8-9.5l-0.1-0.1c-8.9-10.3-14.4-23.8-17.7-36.2
		c-0.7-2.3-1.2-4.6-1.7-6.9c-2-9-3.2-18.2-3.6-27.4c0-2.3,1.9-4.2,4.3-4.1c2.2,0,4,1.7,4.1,3.9c0.3,6.9,1.1,13.7,2.3,20.5
		c0.8,4.2,1.7,8.7,3.1,13.4c3.1,11,7.9,22.7,15.4,31.4c5.2,5.5,11.7,7.7,18.3,6.4c7.8-1.6,14.4-7.9,17.7-16.9
		c2.6-7.1,4.7-14.3,6.4-21.7c1-4.6,1.9-9.3,2.6-14.1c0.8-5.8,1.4-11.7,1.7-17.8c0.2-2.3,2.3-4,4.6-3.8
		C677.3,555,678.9,556.8,678.9,559"/>
	<path class="st26" d="M678.9,559c-0.4,8.3-1.3,16.5-2.8,24.7c-0.4,2.5-0.9,5.1-1.5,7.6c-1.8,8.1-4.1,16-6.9,23.7
		c-4.3,11.7-13.2,20.1-23.8,22.2c-1.8,0.4-3.6,0.5-5.4,0.5c-7.6,0-15-3.3-20.8-9.5l-0.1-0.1c-8.9-10.3-14.4-23.8-17.7-36.2
		c-0.7-2.3-1.2-4.6-1.7-6.9c-2-9-3.2-18.2-3.6-27.4c0-2.3,1.9-4.2,4.3-4.1c2.2,0,4,1.7,4.1,3.9c0.3,6.9,1.1,13.7,2.3,20.5
		c0.8,4.2,1.7,8.7,3.1,13.4c3.1,11,7.9,22.7,15.4,31.4c5.2,5.5,11.7,7.7,18.3,6.4c7.8-1.6,14.4-7.9,17.7-16.9
		c2.6-7.1,4.7-14.3,6.4-21.7c1-4.6,1.9-9.3,2.6-14.1c0.8-5.8,1.4-11.7,1.7-17.8c0.2-2.3,2.3-4,4.6-3.8
		C677.3,555,678.9,556.8,678.9,559L678.9,559z"/>
	<path class="st0" d="M558.6,524.2c-0.8,49.3,76.7,50.5,77.5,1.2"/>
	<path class="st3" d="M597.6,563.2h-0.8c-10.5-0.2-20.2-3.7-27.4-10c-8.1-7.1-12.3-17.1-12.2-29h2.7c-0.2,11,3.7,20.3,11.2,26.9
		c6.7,5.9,15.8,9.2,25.6,9.3s19-2.9,25.9-8.5c7.7-6.3,11.9-15.5,12-26.5l2.7,0c-0.2,11.8-4.7,21.7-13,28.6
		C616.8,560,607.3,563.3,597.6,563.2"/>
	<path class="st0" d="M636.2,525.4c-0.8,49.3,76.8,50.5,77.5,1.2"/>
	<path class="st3" d="M675,564.4c-8,0.1-15.8-2-22.7-6.1c-11.6-6.9-17.8-18.6-17.6-32.9h2.7c-0.2,13.3,5.6,24.2,16.3,30.6
		c12.7,7.3,28.4,7.6,41.3,0.6c10.9-6.1,17-16.7,17.2-30h2.7c-0.2,14.4-6.8,25.9-18.6,32.4C689.8,562.6,682.5,564.4,675,564.4"/>
	<path class="st4" d="M671.6,480.3c0,13-16.7,23.5-37.3,23.5s-37.3-10.5-37.3-23.5s16.7-23.5,37.3-23.5S671.6,467.3,671.6,480.3"/>
	<path class="st4" d="M636.3,466.3c-15.5,0-27.1,7.4-27.1,13.9s11.6,14,27.1,14s27.1-7.4,27.1-14S651.8,466.3,636.3,466.3
		 M636.3,511.3c-24.8,0-44.2-13.6-44.2-31s19.4-31,44.2-31s44.2,13.6,44.2,31S661,511.3,636.3,511.3"/>
	<path class="st0" d="M650.7,469c0,3.1-7,5.5-15.7,5.5s-15.7-2.5-15.7-5.5s7-5.5,15.7-5.5S650.7,466,650.7,469"/>
	<path class="st27" d="M635.6,537.2c0,0,18.9,36.6,55.5,22.9c19.7-9.2,23.1-24.6,22.6-33.4"/>
	<path class="st27" d="M557.6,526.6c-0.5,8.8,2.9,24.2,22.6,33.4c36.6,13.7,55.5-22.9,55.5-22.9v-32"/>
	<g>
		<defs>
			<rect id="SVGID_35_" x="597.9" y="658.4" width="82.1" height="40.5"/>
		</defs>
		<clipPath id="SVGID_36_">
			<use xlink:href="#SVGID_35_"  style="overflow:visible;"/>
		</clipPath>
		<g class="st28">
			<g class="st2">
				<path class="st3" d="M597.9,658.4c0,0,8.2,40.5,39.7,40.5s41.7-31.4,42.4-40.5C680,658.4,637.4,701.1,597.9,658.4"/>
			</g>
		</g>
	</g>
	<path class="st8" d="M601,658.4c0,0,31.4,44.7,76.2,0"/>
</g>
</svg>
